<svg xmlns="http://www.w3.org/2000/svg" viewBox="0 0 100 100">
  <defs>
    <linearGradient id="cakeGrad" x1="0%" y1="0%" x2="100%" y2="100%">
      <stop offset="0%" style="stop-color:#e11d48;stop-opacity:1" />
      <stop offset="100%" style="stop-color:#db2777;stop-opacity:1" />
    </linearGradient>
  </defs>
  <circle cx="50" cy="50" r="45" fill="url(#cakeGrad)"/>
  <path d="M30 55 L30 70 Q30 75 35 75 L65 75 Q70 75 70 70 L70 55" fill="#fff" opacity="0.9"/>
  <path d="M25 55 L25 60 Q25 65 30 65 L70 65 Q75 65 75 60 L75 55 Q75 50 70 50 L30 50 Q25 50 25 55" fill="#fff"/>
  <ellipse cx="50" cy="50" rx="25" ry="5" fill="#fbbf24"/>
  <rect x="48" y="35" width="4" height="15" fill="#fff" rx="2"/>
  <ellipse cx="50" cy="33" rx="4" ry="5" fill="#fbbf24"/>
  <path d="M50 28 Q52 25 50 22 Q48 25 50 28" fill="#f59e0b"/>
</svg>
